<svg width="28" height="28" viewBox="0 0 28 28" fill="none" xmlns="http://www.w3.org/2000/svg">
<g clip-path="url(#clip0_1_647)">
<path d="M26.9428 11.5659L15.5218 11.5653C15.0175 11.5653 14.6087 11.974 14.6087 12.4784V16.1268C14.6087 16.6311 15.0175 17.0399 15.5218 17.0399H21.9533C21.2491 18.8676 19.9346 20.3983 18.2576 21.3708L21 26.1182C25.3991 23.574 28 19.1099 28 14.1127C28 13.4011 27.9475 12.8925 27.8426 12.3197C27.7629 11.8846 27.3851 11.5659 26.9428 11.5659Z" fill="#167EE6"/>
<path d="M14 22.5217C10.8525 22.5217 8.10478 20.802 6.62904 18.2572L1.88184 20.9934C4.29766 25.1804 8.82326 27.9999 14 27.9999C16.5395 27.9999 18.9357 27.3162 21 26.1246V26.1181L18.2576 21.3707C17.0031 22.0982 15.5515 22.5217 14 22.5217Z" fill="#12B347"/>
<path d="M21 26.1247V26.1181L18.2576 21.3707C17.0032 22.0982 15.5516 22.5217 14 22.5217V28C16.5395 28 18.9359 27.3162 21 26.1247Z" fill="#0F993E"/>
<path d="M5.47827 14C5.47827 12.4485 5.90166 10.9971 6.62906 9.7427L1.88185 7.00647C0.683703 9.0642 0 11.4539 0 14C0 16.546 0.683703 18.9357 1.88185 20.9935L6.62906 18.2572C5.90166 17.0029 5.47827 15.5514 5.47827 14Z" fill="#FFD500"/>
<path d="M14 5.47827C16.0525 5.47827 17.9378 6.20758 19.4103 7.42071C19.7736 7.71996 20.3016 7.69836 20.6344 7.36558L23.2195 4.78051C23.597 4.40294 23.5701 3.78492 23.1668 3.43503C20.6996 1.29462 17.4894 0 14 0C8.82327 0 4.29766 2.81952 1.88184 7.00651L6.62904 9.74274C8.10478 7.19797 10.8525 5.47827 14 5.47827Z" fill="#FF4B26"/>
<path d="M19.4103 7.42071C19.7736 7.71996 20.3017 7.69836 20.6344 7.36558L23.2195 4.78051C23.597 4.40294 23.5701 3.78492 23.1668 3.43503C20.6996 1.29456 17.4894 0 14 0V5.47826C16.0524 5.47826 17.9378 6.20758 19.4103 7.42071Z" fill="#D93F21"/>
</g>
<defs>
<clipPath id="clip0_1_647">
<rect width="28" height="28" fill="white"/>
</clipPath>
</defs>
</svg>
